<svg width="375" height="387" viewBox="0 0 375 387" fill="none" xmlns="http://www.w3.org/2000/svg">
<g clip-path="url(#clip0_23_2416)">
<mask id="mask0_23_2416" style="mask-type:alpha" maskUnits="userSpaceOnUse" x="-321" y="-162" width="1040" height="692">
<g clip-path="url(#paint0_diamond_23_2416_clip_path)" data-figma-skip-parse="true"><g transform="matrix(0 0.376812 -0.876393 0 199 137.369)"><rect x="0" y="0" width="1043.4" height="593.953" fill="url(#paint0_diamond_23_2416)" opacity="1" shape-rendering="crispEdges"/><rect x="0" y="0" width="1043.4" height="593.953" transform="scale(1 -1)" fill="url(#paint0_diamond_23_2416)" opacity="1" shape-rendering="crispEdges"/><rect x="0" y="0" width="1043.4" height="593.953" transform="scale(-1 1)" fill="url(#paint0_diamond_23_2416)" opacity="1" shape-rendering="crispEdges"/><rect x="0" y="0" width="1043.4" height="593.953" transform="scale(-1)" fill="url(#paint0_diamond_23_2416)" opacity="1" shape-rendering="crispEdges"/></g></g><rect x="-321" y="-162" width="1040" height="692" data-figma-gradient-fill="{&#34;type&#34;:&#34;GRADIENT_DIAMOND&#34;,&#34;stops&#34;:[{&#34;color&#34;:{&#34;r&#34;:1.0,&#34;g&#34;:1.0,&#34;b&#34;:1.0,&#34;a&#34;:1.0},&#34;position&#34;:0.0},{&#34;color&#34;:{&#34;r&#34;:0.85098040103912354,&#34;g&#34;:0.85098040103912354,&#34;b&#34;:0.85098040103912354,&#34;a&#34;:0.0},&#34;position&#34;:1.0}],&#34;stopsVar&#34;:[],&#34;transform&#34;:{&#34;m00&#34;:-4.0530038635140653e-13,&#34;m01&#34;:-1752.7867431640625,&#34;m02&#34;:1075.3933105468750,&#34;m10&#34;:753.62414550781250,&#34;m11&#34;:1.6198652662280377e-12,&#34;m12&#34;:-239.44302368164062},&#34;opacity&#34;:1.0,&#34;blendMode&#34;:&#34;NORMAL&#34;,&#34;visible&#34;:true}"/>
</mask>
<g mask="url(#mask0_23_2416)">
<g opacity="0.9">
<circle cx="316.617" cy="273.363" r="0.699952" fill="white" fill-opacity="0.5"/>
<circle cx="72.2971" cy="198.941" r="0.866106" fill="white" fill-opacity="0.3"/>
<circle cx="5.7695" cy="222.393" r="0.639683" fill="white" fill-opacity="0.6"/>
<circle cx="148.496" cy="333.745" r="0.700234" fill="white" fill-opacity="0.4"/>
<circle cx="343.985" cy="295.996" r="0.837128" fill="white" fill-opacity="0.5"/>
<circle cx="1.60862" cy="161.994" r="0.621616" fill="white" fill-opacity="0.6"/>
<circle cx="17.7882" cy="377.67" r="0.818832" fill="white" fill-opacity="0.4"/>
<circle cx="133.096" cy="93.3931" r="0.690477" fill="white" fill-opacity="0.6"/>
<circle cx="12.4038" cy="43.739" r="0.76211" fill="white" fill-opacity="0.5"/>
<circle cx="180.993" cy="285.733" r="0.637879" fill="white" fill-opacity="0.5"/>
<circle cx="259.685" cy="262.013" r="0.596974" fill="white" fill-opacity="0.3"/>
<circle cx="228.999" cy="378.729" r="0.694188" fill="white" fill-opacity="0.5"/>
<circle cx="69.168" cy="36.5704" r="0.69691" fill="white" fill-opacity="0.5"/>
<circle cx="30.1798" cy="374.67" r="0.778728" fill="white" fill-opacity="0.3"/>
<circle cx="236.885" cy="327.416" r="0.882725" fill="white" fill-opacity="0.4"/>
<circle cx="262.168" cy="95.1906" r="0.711451" fill="white" fill-opacity="0.6"/>
<circle cx="4.82303" cy="242.757" r="0.876195" fill="white" fill-opacity="0.5"/>
<circle cx="313.122" cy="386.487" r="0.756572" fill="white" fill-opacity="0.3"/>
<circle cx="122.443" cy="108.196" r="0.693902" fill="white" fill-opacity="0.3"/>
<circle cx="372.827" cy="56.672" r="0.671636" fill="white" fill-opacity="0.5"/>
<circle cx="1.12285" cy="21.8032" r="0.729233" fill="white" fill-opacity="0.4"/>
<circle cx="227.811" cy="89.2495" r="0.689881" fill="white" fill-opacity="0.5"/>
<circle cx="132.578" cy="145.562" r="0.765212" fill="white" fill-opacity="0.4"/>
<circle cx="111.963" cy="384.825" r="0.869681" fill="white" fill-opacity="0.6"/>
<circle cx="205.936" cy="71.5181" r="0.718168" fill="white" fill-opacity="0.6"/>
<circle cx="47.4151" cy="351.651" r="0.84679" fill="white" fill-opacity="0.4"/>
<circle cx="75.6115" cy="307.034" r="0.627863" fill="white" fill-opacity="0.4"/>
<circle cx="77.4745" cy="318.37" r="0.715796" fill="white" fill-opacity="0.3"/>
<circle cx="301.379" cy="247.469" r="0.852779" fill="white" fill-opacity="0.6"/>
<circle cx="158.522" cy="313.579" r="0.661517" fill="white" fill-opacity="0.3"/>
<circle cx="42.6912" cy="342.783" r="0.859218" fill="white" fill-opacity="0.6"/>
<circle cx="186.971" cy="221.267" r="0.696622" fill="white" fill-opacity="0.3"/>
<circle cx="354.043" cy="110.11" r="0.831583" fill="white" fill-opacity="0.4"/>
<circle cx="29.6136" cy="176.384" r="0.80469" fill="white" fill-opacity="0.5"/>
<circle cx="50.9692" cy="228.523" r="0.848888" fill="white" fill-opacity="0.4"/>
<circle cx="230.884" cy="322.601" r="0.803339" fill="white" fill-opacity="0.3"/>
<circle cx="35.466" cy="1.68301" r="0.735984" fill="white" fill-opacity="0.4"/>
<circle cx="358.754" cy="184.673" r="0.806592" fill="white" fill-opacity="0.4"/>
<circle cx="77.5631" cy="81.0759" r="0.804401" fill="white" fill-opacity="0.4"/>
<circle cx="307.897" cy="243.924" r="0.859109" fill="white" fill-opacity="0.5"/>
<circle cx="353.292" cy="19.9694" r="0.671462" fill="white" fill-opacity="0.6"/>
<circle cx="16.0543" cy="33.1817" r="0.859953" fill="white" fill-opacity="0.6"/>
<circle cx="109.965" cy="264.432" r="0.647362" fill="white" fill-opacity="0.3"/>
<circle cx="242.772" cy="50.9322" r="0.85128" fill="white" fill-opacity="0.6"/>
<circle cx="120.095" cy="258.578" r="0.713183" fill="white" fill-opacity="0.5"/>
<circle cx="270.557" cy="216.647" r="0.813803" fill="white" fill-opacity="0.3"/>
<circle cx="228.498" cy="385.332" r="0.785658" fill="white" fill-opacity="0.4"/>
<circle cx="348.076" cy="31.33" r="0.784446" fill="white" fill-opacity="0.3"/>
<circle cx="285.221" cy="68.5186" r="0.678364" fill="white" fill-opacity="0.4"/>
<circle cx="129.655" cy="209.532" r="0.802016" fill="white" fill-opacity="0.4"/>
<circle cx="55.6198" cy="204.757" r="0.763236" fill="white" fill-opacity="0.4"/>
<circle cx="272.369" cy="370.004" r="0.849438" fill="white" fill-opacity="0.5"/>
<circle cx="304.715" cy="378.672" r="0.636609" fill="white" fill-opacity="0.5"/>
<circle cx="244.373" cy="77.9881" r="0.676482" fill="white" fill-opacity="0.6"/>
<circle cx="160.284" cy="9.29093" r="0.648472" fill="white" fill-opacity="0.4"/>
<circle cx="247.356" cy="243.764" r="0.698949" fill="white" fill-opacity="0.6"/>
<circle cx="225.008" cy="306.068" r="0.846621" fill="white" fill-opacity="0.6"/>
<circle cx="7.61861" cy="212.402" r="0.711873" fill="white" fill-opacity="0.5"/>
<circle cx="325.601" cy="56.2131" r="0.804688" fill="white" fill-opacity="0.5"/>
<circle cx="119.592" cy="117.185" r="0.803196" fill="white" fill-opacity="0.5"/>
<circle cx="155.784" cy="50.3719" r="0.883131" fill="white" fill-opacity="0.5"/>
<circle cx="171.61" cy="93.4297" r="0.727048" fill="white" fill-opacity="0.6"/>
<circle cx="113.102" cy="246.848" r="0.82322" fill="white" fill-opacity="0.4"/>
<circle cx="102.969" cy="50.2436" r="0.754837" fill="white" fill-opacity="0.5"/>
<circle cx="163.256" cy="331.337" r="0.660223" fill="white" fill-opacity="0.5"/>
<circle cx="26.463" cy="94.5008" r="0.614002" fill="white" fill-opacity="0.4"/>
<circle cx="196.444" cy="259.746" r="0.69723" fill="white" fill-opacity="0.6"/>
<circle cx="180.561" cy="24.2402" r="0.798039" fill="white" fill-opacity="0.6"/>
<circle cx="96.5512" cy="52.7056" r="0.848304" fill="white" fill-opacity="0.5"/>
<circle cx="196.951" cy="253.741" r="0.613189" fill="white" fill-opacity="0.3"/>
<circle cx="96.4488" cy="306.56" r="0.745889" fill="white" fill-opacity="0.4"/>
<circle cx="53.8999" cy="297.162" r="0.819658" fill="white" fill-opacity="0.6"/>
<circle cx="288.733" cy="50.7188" r="0.637861" fill="white" fill-opacity="0.5"/>
<circle cx="344.967" cy="336.048" r="0.634724" fill="white" fill-opacity="0.6"/>
<circle cx="179.299" cy="57.9041" r="0.719579" fill="white" fill-opacity="0.5"/>
<circle cx="251.413" cy="292.22" r="0.613337" fill="white" fill-opacity="0.4"/>
<circle cx="266.43" cy="130.828" r="0.830232" fill="white" fill-opacity="0.4"/>
<circle cx="57.9969" cy="68.0218" r="0.773981" fill="white" fill-opacity="0.3"/>
<circle cx="77.3734" cy="2.15354" r="0.614725" fill="white" fill-opacity="0.3"/>
<circle cx="120.202" cy="69.2526" r="0.820446" fill="white" fill-opacity="0.5"/>
<circle cx="179.217" cy="323.62" r="0.638211" fill="white" fill-opacity="0.5"/>
<circle cx="196.505" cy="314.268" r="0.758062" fill="white" fill-opacity="0.4"/>
<circle cx="52.076" cy="102.946" r="0.771508" fill="white" fill-opacity="0.3"/>
<circle cx="245.023" cy="154.412" r="0.734636" fill="white" fill-opacity="0.5"/>
<circle cx="214.834" cy="327.863" r="0.737588" fill="white" fill-opacity="0.4"/>
<circle cx="125.993" cy="94.579" r="0.692114" fill="white" fill-opacity="0.5"/>
</g>
<g opacity="0.1">
<g clip-path="url(#clip1_23_2416)">
<path d="M19.9103 -84.1694V778.817" stroke="white" stroke-width="0.654481"/>
<path d="M61.7971 -84.1694V778.817" stroke="white" stroke-width="0.654481"/>
<path d="M103.684 -84.1694V778.817" stroke="white" stroke-width="0.654481"/>
<path d="M145.571 -84.1694V778.817" stroke="white" stroke-width="0.654481"/>
<path d="M187.457 -84.1694V778.817" stroke="white" stroke-width="0.654481"/>
<path d="M229.344 -84.1694V778.817" stroke="white" stroke-width="0.654481"/>
<path d="M271.231 -84.1694V778.817" stroke="white" stroke-width="0.654481"/>
<path d="M313.118 -84.1694V778.817" stroke="white" stroke-width="0.654481"/>
<path d="M355.005 -84.1694V778.817" stroke="white" stroke-width="0.654481"/>
</g>
<g clip-path="url(#clip2_23_2416)">
<path d="M-315.184 41.4908L933 41.4908" stroke="white" stroke-width="0.654481"/>
<path d="M-315.184 83.3776L933 83.3776" stroke="white" stroke-width="0.654481"/>
<path d="M-315.184 125.264L933 125.264" stroke="white" stroke-width="0.654481"/>
<path d="M-315.184 167.151L933 167.151" stroke="white" stroke-width="0.654481"/>
<path d="M-315.184 209.038L933 209.038" stroke="white" stroke-width="0.654481"/>
<path d="M-315.184 250.925L933 250.925" stroke="white" stroke-width="0.654481"/>
<path d="M-315.184 292.811L933 292.811" stroke="white" stroke-width="0.654481"/>
<path d="M-315.184 334.698L933 334.698" stroke="white" stroke-width="0.654481"/>
<path d="M-315.184 376.585L933 376.585" stroke="white" stroke-width="0.654481"/>
</g>
</g>
</g>
</g>
<defs>
<clipPath id="paint0_diamond_23_2416_clip_path"><rect x="-321" y="-162" width="1040" height="692"/></clipPath><linearGradient id="paint0_diamond_23_2416" x1="0" y1="0" x2="500" y2="500" gradientUnits="userSpaceOnUse">
<stop stop-color="white"/>
<stop offset="1" stop-color="#D9D9D9" stop-opacity="0"/>
</linearGradient>
<clipPath id="clip0_23_2416">
<rect width="376" height="394" fill="white" transform="translate(-1 -7)"/>
</clipPath>
<clipPath id="clip1_23_2416">
<rect width="1248.18" height="806.841" fill="white" transform="translate(-315.184 -84.1694)"/>
</clipPath>
<clipPath id="clip2_23_2416">
<rect width="1248.18" height="806.841" fill="white" transform="translate(-315.184 -84.1694)"/>
</clipPath>
</defs>
</svg>
